/* XPM */
static char *f80ae39828484b27b46686c13122f0907ZLEz1GDrrkxAgvz[] = {
/* columns rows colors chars-per-pixel */
"60 60 218 2 ",
"   c #020406",
".  c #02050B",
"X  c #03080E",
"o  c #00140F",
"O  c #030711",
"+  c #030B14",
"@  c #030E1A",
"#  c #0A0C1C",
"$  c #0A0717",
"%  c #03111D",
"&  c #0C121C",
"*  c #011816",
"=  c #060E20",
"-  c #090E22",
";  c #050C29",
":  c #041423",
">  c #081324",
",  c #041926",
"<  c #05172A",
"1  c #051A2C",
"2  c #081A2E",
"3  c #111D2D",
"4  c #051D32",
"5  c #091D33",
"6  c #061F39",
"7  c #091D39",
"8  c #071730",
"9  c #052235",
"0  c #092036",
"q  c #05243B",
"w  c #08243B",
"e  c #05283D",
"r  c #09283F",
"t  c #10203A",
"y  c #0B1D41",
"u  c #052641",
"i  c #0A2542",
"p  c #062A44",
"a  c #092A45",
"s  c #062E49",
"d  c #062D4B",
"f  c #0A2D4A",
"g  c #08244C",
"h  c #122749",
"j  c #07314D",
"k  c #06324D",
"l  c #09314D",
"z  c #093245",
"x  c #0A2E52",
"c  c #052D51",
"v  c #1B2D51",
"b  c #073350",
"n  c #053352",
"m  c #083451",
"M  c #0A3454",
"N  c #043B56",
"B  c #0A3A55",
"V  c #0A3559",
"C  c #0B3759",
"Z  c #053B5A",
"A  c #0D385B",
"S  c #0B3B5C",
"D  c #00345B",
"F  c #17385B",
"G  c #0B3E63",
"H  c #083E65",
"J  c #153765",
"K  c #0A405E",
"L  c #14415E",
"P  c #044464",
"I  c #0B4164",
"U  c #05466B",
"Y  c #0C426A",
"T  c #0C446B",
"R  c #074B6C",
"E  c #0B496E",
"W  c #12476C",
"Q  c #134969",
"!  c #024672",
"~  c #054D74",
"^  c #0C4C73",
"/  c #104E73",
"(  c #114B73",
")  c #154F78",
"_  c #035474",
"`  c #0E5174",
"'  c #075179",
"]  c #0B547D",
"[  c #0B5A7D",
"{  c #015F79",
"}  c #115275",
"|  c #15547B",
" . c #135A7D",
".. c #055482",
"X. c #095683",
"o. c #065986",
"O. c #0A5984",
"+. c #065E89",
"@. c #0A5C89",
"#. c #125581",
"$. c #135D84",
"%. c #195E86",
"&. c #135D89",
"*. c #0A6186",
"=. c #06638A",
"-. c #0A628C",
";. c #0D6A8E",
":. c #126185",
">. c #14628C",
",. c #19628A",
"<. c #1A6687",
"1. c #0E6693",
"2. c #0D6A92",
"3. c #0D6E9C",
"4. c #066992",
"5. c #176591",
"6. c #136A93",
"7. c #136D99",
"8. c #196B97",
"9. c #0E729D",
"0. c #0E7097",
"q. c #13749C",
"w. c #1A7499",
"e. c #136FA0",
"r. c #0F74A0",
"t. c #0F7AA4",
"y. c #1176A2",
"u. c #127CA5",
"i. c #197BA9",
"p. c #107EB1",
"a. c #277CA3",
"s. c #1582AA",
"d. c #1983AD",
"f. c #0F81B4",
"g. c #1785B1",
"h. c #1986B2",
"j. c #178DB4",
"k. c #198BB4",
"l. c #1991B6",
"z. c #1D93B9",
"x. c #1492BB",
"c. c #2295BA",
"v. c #3E9DB1",
"b. c #298DA9",
"n. c #519BB6",
"m. c #4A95B4",
"M. c #2D9DC2",
"N. c #329EC2",
"B. c #35A4C5",
"V. c #3BA9C6",
"C. c #3DACCC",
"Z. c #38A7C8",
"A. c #3BB1CF",
"S. c #3DAED0",
"D. c #3DB5D5",
"F. c #4B9FC1",
"G. c #4FAAC5",
"H. c #40ADCA",
"J. c #52ADCA",
"K. c #50ABC6",
"L. c #43B2CF",
"P. c #40B4C1",
"I. c #56B3CC",
"U. c #58B1CF",
"Y. c #4AAAD0",
"T. c #45B3D0",
"R. c #48B7D5",
"E. c #5AB5D2",
"W. c #5EB9D6",
"Q. c #68B5CD",
"!. c #65BED5",
"~. c #62BCDA",
"^. c #6ABDDA",
"/. c #67B6D5",
"(. c #78BED7",
"). c #5CC2D8",
"_. c #6EC1CF",
"`. c #66C3D7",
"'. c #6CC1D6",
"]. c #66C2D9",
"[. c #6CC5DA",
"{. c #71C5DC",
"}. c #76C9DD",
"|. c #78CCDE",
" X c #6DC7E6",
".X c #74CDE1",
"XX c #7ACEE2",
"oX c #7AD2E3",
"OX c #7DD4E9",
"+X c #75CFF1",
"@X c #80CDDD",
"#X c #86D5DD",
"$X c #84D3E2",
"%X c #89D6E6",
"&X c #91DFEC",
"*X c #96D3F0",
"=X c #8CE1EC",
"-X c #9AE2EE",
";X c #9BE6F4",
":X c #96E7F8",
">X c #9DF6FF",
",X c #A3E6EC",
"<X c #A6E9EF",
"1X c #A7EAF0",
"2X c #AEE9F2",
"3X c #A9E7F8",
"4X c #B5ECF2",
"5X c #BDEDF5",
"6X c #BCF1F6",
"7X c #BEF2F8",
"8X c #C1F1F6",
"9X c #CEF6F6",
"0X c #C3F4FA",
"qX c #C9F6FB",
"wX c #C9F9FE",
"eX c #CFFFF5",
"rX c #D1FAFA",
"tX c #DBFCFE",
/* pixels */
"      .     . . . O + + + + @ + + + + + O + + + + + + @ + + + + + + @ + + + + + X + o $ O O O O O X . .   .   .         ",
"              . . O O + + + + + + @ @ + % + % @ @ % + @ @ + @ @ @ + O @ @ + o + + + + + @ O O O X X .   . .             ",
"        . . . . . + + + + + @ @ % + @ @ @ * % + @ @ @ @ @ @ @ + @ + + + + + + + + + + + @ O + + X O X   .               ",
"        . . X O O + + + @ @ @ % @ % @ % @ @ % % % @ @ @ @ @ @ * @ @ @ @ @ @ & + @ @ + @ + + + + O O X . . . . .         ",
"    . . . . O O + + + @ % % % % % % : : % : : % % > % % % % % % @ @ @ @ @ @ @ @ * & @ @ @ + + + + + O X . . . .         ",
". .   . .   O + + + % % : : : : : : : : : : : : , : , : : : : , : = = : : @ : @ % % % % % % @ @ + + + O . . .           ",
".     . . . + + @ @ % : : 1 1 1 1 1 1 1 1 1 1 1 < < 1 < < < < < : < : , : : , , : : : > : % % @ % @ + + O . . .         ",
"        X O + + @ > , , 1 1 4 2 9 9 4 1 4 4 4 1 5 1 2 4 1 1 1 1 2 1 2 1 1 1 < 1 1 < 1 < : , , > % % % + O . . .         ",
".   . . X + + + * * : 6 e 9 i w i w w w w w w w w q q q q q q 9 6 q 6 6 6 6 6 6 4 6 9 4 4 5 5 4 < * o + @ .   X .       ",
". . . . O + % % ; 5 y g p s x k d d l f d s s s p p p i p e e e p e u p e w e e e p q w q 9 9 9 7 , * @ @ @ X     .   . ",
"    . . O + % % , 9 s n B Z V F A A A A V V V M V V V V V M M M b M b b M m j k b j b l k s a p y 4 3 - % X   X . . .   ",
". . . O O @ % : 9 s S T ) } ' ^ / / / / / / ^ ^ ^ ^ ! E E E E U T Y T Y Y I Y I Y G G G I G G S H s 7 = % @ O O .   . . ",
". . X X + @ : 1 0 S ] <.6.9.i.8.7.3.6.7.2.7.2.1.8.>.6.6.5.5.>.;.5.&.>.5.&.5.&.&.&.&.&.&.>.&.@.@._ N f : % % @ . .     . ",
". .   O + @ : 2 h U b.I.R.D.R.L.R.R.L.T.L.T.L.L.H.H.H.V.V.V.V.V.V.V.B.Z.Z.Z.Z.B.B.B.B.B.B.B.B.B.v.:.n 9 , + O $ . . . . ",
". . . O + % 1 4 k _ (.tXwXrXtXeXrXrXrXrXqX9X9X9XwXwXqXqXqXqXqXqXqXqX0X0X7X7X0X0X7X7X7X7X6X6X6X6X>Xm.D e , @ @ X . O . . ",
". . . O + % 1 4 v +.+X=XP.D.Y.D.C.C.C.C.A.C.C.C.Z.Z.Z.Z.Z.B.B.B.N.B.N.B.N.N.N.N.M.M.M.M.M.M.M.M.=Xn.H r % % # X . . . . ",
"  . O + @ % 1 q A +.XXOXd.i.w.7.w.8.6.7.7.6.6.6.5.5.>.>.>.>.>.>.>.>.:.$.&.@.:.:.&.@.$.%.:.$.,.9.|.G.U a 1 : @ O O . . . ",
"  X + + @ % 4 w G +.XXXXy.;.:.O.] ] ] / } ^ ^ ^ ^ ^ E ^ ^ ^ ^ T T T T E Y Y Y Y T R T T R / #.2.XXG.U a 2 , @ + O O . . ",
"  O O + @ % 1 p G -.XX.X7.] / Y Y G G G G A S S S S V S V S V V V M V V M M V V b M n M Z G ( *.XXG.E f 2 , @ @ O . . . ",
"  X O O % : 4 w S -.XXXX1.} Q G B B M d b j d s f f f s f a a a p f a s a p a a a f f f l A Q *.XXJ.E f 9 , % + O O . . ",
". X O + + : 4 p S -.oX}.1.R S M l l s s p p p p i u w u w w w 9 q u q q e q p q w u i a s b E o.XXJ.~ f 9 : % + O X X   ",
". X O + % : 9 p G -.|.}.1.R N k a i u u w 9 9 9 9 q 9 9 9 9 6 4 5 5 4 4 4 4 4 4 4 9 9 w p b Y *.XXJ.^ m 9 1 > + O O .   ",
"  X + + % : 9 a A =.|.}.-.E M a w w 4 4 4 4 4 2 2 1 1 1 < < 1 < < < < < 1 < < < 4 4 4 0 e d Y *.XXJ.^ M 9 1 % + + O O . ",
"X X O @ % : 4 a S +.XX{.-.Y l i q 9 9 1 1 1 1 1 1 1 > < , , , : : , < , < 1 , , 4 1 8 7 q s I @.XXJ.^ x 9 1 : @ + X X . ",
"X O + + & : 4 i S @.oX[.@.I l u 4 4 4 < 1 < < < , : , : : , : : % : : : : : : : : < 5 4 9 f G +.@XE.~ V q 1 > @ + O . . ",
"X X + + @ , 4 r S @.|.[.@.I f u 4 4 < < < : : : : : : , % : : : : : : : : : : : > < 2 1 9 f G =.@XU.~ x 9 < > @ + O . . ",
"X X O + % : 9 e S @.|.`.@.G a u 4 1 < , : : : : % : % % % % % % % % % % : : : : > < 1 1 9 p H -.@XE.~ M q < = @ O O O . ",
"X X O + % : 4 r Z O.|.'.O.I a w 4 1 , : : : @ : % % % % % % @ @ % % % % % % : : > < 1 1 9 f H -.@XU.~ V q 1 > @ + + O . ",
". X + + % % 9 e S O.}.'.o.S p 9 2 < , > % % > : % % % @ @ @ % @ @ % @ % @ : : : : : < 1 9 p Y -.@XE.' M 9 , : @ + O O . ",
"  X O + % : 1 r Z O.}.'.o.I p q 2 < : > : : % % % % % % @ @ @ @ @ % % % @ : @ = > : < < 9 a I -.$XE.' V e 1 % % + + O . ",
"X O O @ % : 4 e M O.}.].o.G i 9 1 < : : : % % : & % % % % @ @ % % % % @ : : : : : : 4 < 9 f H -.$XE.' M q , > @ + + O O ",
". X O + % : 1 p S X.}.'.o.S p 4 1 1 : : : @ : : % % % % % % @ : % % % : = : : : : < < 4 9 f Y ;.@XE.' M e 1 : % $ O . . ",
". X + @ % : 2 i B O.[.`.o.S p q 1 1 < : : : : : : % : % % % % : % : % : : : : : : 1 2 1 q f G 5.$XW.] V q 1 > @ O O O X ",
". X O + @ : 1 w V O.{.]...G p q 4 1 < : : : : : : : : : : : : : : : : : : < 1 , 1 1 4 6 e b T 2.$XE.] V e 1 > % + O O   ",
"X X + + * > 4 w M X.[.].X.G p w 9 1 1 1 1 : , , < : : < : < < : < < < : 1 < 1 1 4 4 6 q u x T 4.%XW.[ V e 1 : @ + + O . ",
"  X X + % % 1 w B O.[.^.] K a w 9 9 1 1 1 1 1 : < 1 < 1 < < < < < 1 1 1 1 4 4 4 4 4 9 q p V E 2.$XW.] S e 1 : % + + . X ",
"X X X O % % 1 w M X._.!...G f i 9 9 9 5 5 4 4 4 1 2 5 2 2 2 5 2 4 5 5 4 4 5 9 9 9 9 w p s V ^ 2.%XW.[ A e 1 : @ + + . . ",
"  X O + @ : , w M O.'.!...G l p p w q 9 6 9 6 4 0 9 9 9 w 4 9 9 9 6 w 6 q q q w w p a p k S / 6.%XW.[ V e 1 > @ + + O O ",
"  X . + @ % , w M X.'.!.o.I B j f a i i u p p p p p p p p a p p p p p s a s f s l k M m Z I } 3.%XW.[ S e 1 > + + + O . ",
"  X O O + % 1 w M ] '.!.o.Q B M k M k l l d j j j b b b b b b b M M M V B M V M S Z S S I W #.9.%X^.O.Z e 1 > @ + O . . ",
"  X X + O % , 9 z ] ^.Q.&.' J I S S K S K S S S K S K K S K H I K I I T I T I I W T R / Q } 5.9.*X~.[ N i 1 @ + + O .   ",
".   X O @ % , 4 s .. X[.4.-. .[ } ` ` ` ` ` } } } } } }  . .| |  . . . . . .:.[ $.:.*.<.,.8.q.s.=X).[ m q 1 > @ O O . . ",
".   X X O % : 4 a ! ~.`.0.q.7.q.3.3.3.3.9.3.9.9.y.q.9.t.q.t.t.t.t.t.t.t.s.s.s.s.i.s.s.s.d.k.l.x.#XI.$.V 9 * : $ + X . . ",
".     X $ @ : 1 f U /.:X`.`._.'.{.[.[.{.{..X X{. X.X X.X.X}..X.X.X.X.X|.oXoXoXoXXXOXoXoXoX$XOXOXqXQ.' x 9 , % @ O X . . ",
". . . . O + > , q K n.-X;X;X<X3X,X,X<X,X<X<X<X2X2X2X2X2X4X2X4X4X4X4X4X4X5X4X6X4X5X5X6X6X6X8X8X5X3XG.~ g 4 % @ + O O     ",
". . . . O + % : 9 D [ a.d.p.f.p.u.s.s.d.d.d.d.h.s.g.g.g.k.k.h.k.j.j.l.j.k.k.l.l.l.z.z.z.z.c.c.c.b.;.H h 1 % @ + X . . . ",
". .   . X + @ : 1 p N T W ^ ^ Q ^ ` ` ` ` ` ` ` } | | | | | #.| |  . . . .$. .$.$.$.<.%.%.%.,.,.{ U d 5 , , #   . . . . ",
". . . . X O + * & 1 u b x A S B S V S M S S S A S S S K S G I G K K G K I I I P R I T T T U U U J x i , * - # + .       ",
". .   . O O + # : , 4 9 w i i a u p p p p f p p a p f s f f s d f l j d j j j j b m b M k M j l a w 4 : % + + X X .   . ",
"      X . O O + @ * , 1 4 9 9 7 6 4 6 9 4 9 9 6 9 9 6 9 q 9 q q q q w w w u q u u u i p e e p w 9 4 < % @ X O . .       ",
"    .   . X + + + @ % : : : , , 1 < 1 , 1 1 < 1 1 1 1 , < 1 1 4 1 1 2 1 2 2 4 2 5 4 4 4 4 2 2 2 4 < : @ + O O X   .     ",
"          X . X + + @ % % % @ % % : & > % % : : % : % : : : : : , : , , , , , 1 < , , , , , , : : @ @ + + X X X X   . . ",
"      .   . . . X + + + @ @ @ & % @ @ % @ % % % % % % % @ : = : % % % : % : > : > > % : % : > % @ @ @ + + . X   .       ",
"    .     .   . X X + + + O @ @ @ @ @ @ @ @ @ @ * @ @ @ @ % @ @ % % % % % % % % @ % % % % @ @ % @ @ X O X X             ",
"      .     . . X X O + O + + + + + + @ + % + @ @ + + % @ @ + @ @ @ % + @ @ @ @ @ % % % % + @ + + + O O X   X           ",
"            .     . X X O O O O + + + O + + + O + O + O + + + + + + @ + + + + @ @ + + % + + + + + X O . X   X       X   ",
"                    X X O O O O O O + O O $ O O + O + + + + + + @ + + + + + @ + + + + @ + + O O X . . .   .   .         ",
"            X     X     . X . X O O O O O O O O + + + + + O O + + + + + + + + + + + + + + + O + X X . O .   .           ",
"                . . . . . . .   . . O O O O O O O O O O O O O O + + + + + O O + + O O O O O O . . O . . . . X           ",
"                .   . . . . . . X X X . . . O O O O O O O O $ O O O O X O O + O O O O O O O O X . . . . . .             "
};
