/* XPM */
static char *_1b7d3b0a7a84a6093f6442fbf87b528hlqSJVcS0HGHbSBK[] = {
/* columns rows colors chars-per-pixel */
"60 60 50 1 ",
"  c #07060E",
". c #08060B",
"X c #08050C",
"o c #0A050C",
"O c #09070C",
"+ c #09060D",
"@ c #0B060C",
"# c #0B060D",
"$ c #08050E",
"% c #0A040E",
"& c #0B050F",
"* c #09060F",
"= c #0A070E",
"- c #0D060D",
"; c #0C070D",
": c #0F050E",
"> c #0D060E",
", c #0C070E",
"< c #0E070E",
"1 c #0E070F",
"2 c #0B080F",
"3 c #0D080E",
"4 c #0D080F",
"5 c #10060F",
"6 c #070510",
"7 c #070512",
"8 c #080510",
"9 c #090611",
"0 c #0A0710",
"q c #090513",
"w c #080613",
"e c #0A0712",
"r c #0C0610",
"t c #0D0711",
"y c #0C0612",
"u c #0D0713",
"i c #0A0614",
"p c #0B0811",
"a c #0B0813",
"s c #0F0810",
"d c #0E0910",
"f c #110710",
"g c #100911",
"h c #120810",
"j c #120811",
"k c #130911",
"l c #130912",
"z c #140A12",
"x c #150B13",
"c c #160C14",
/* pixels */
"ccccccccxxxkxkkkkkkllflfft55555:3333s3s2ssttuuuuaa2aaaaaaaww",
"ccccccccxxkxkxkkkkllflflff55555t:3332s328sttuuuuaaa2aaaa8awu",
"ccccccccxxxkxkkklllllflf5555555:333333ssttttuuuu2a2aaaaawuii",
"ccccccccxxkxkxkkllllflfl555555t:3333s223ttttuuuua2a2aaaawuii",
"xxxxxxxxxxxkxkkkllllkflf55555553:333s332ttttuuuu2a2aaaaawtww",
"xxxxxxxxxxkxkxkkllllfkfl555555f:333322ssttttuuuua2a2aaaatwwu",
"xxxxxxxxxxxkxkkklllllflf5555555333333s23ttttuuuu2a2aaaaauwii",
"xxxxxxxxxxkxkxkkllllflfl5555555t:33332s3ttttuuuua2a2aaaawuiw",
"xkxkxkxkxkxkxkxklflfkfff5kfffffk333333s2rrrryyyy=a2=aa8888ww",
"kxkxkxkxkxkxkxkxflflfffff5ffffk:33333332rrrryyyy=8a88aaaa=ww",
"kxxkxkkxkxxkxkkxlflfkfffffffk5t3h@33s3ssrrrryyyy8=2=8aaat8qq",
"kkkkkkkkkkkkkkkkflfkffff5555555t33333s23rrrryyyya2a8aa8888qq",
"kkkkkkkkkkkkkkkklflfffff5555555:@3@3:===rrrryyyy2=8aa8aa8wqq",
"kkkhkkkkkkkkkkkkflflkfff555t55f3:@3@22::rrrryyyya8=2aa8at8yw",
"kxkxkkkkkkkkkkkkkklffffk55s::s5:@3@@2::=rrrrtytu2a2a88aa88uw",
"k55hhhhhhhhhhhhhfkkuksf3::::::::3@3@22=trrrrutwt=8=8aaa8w8ww",
"ffffflfllflfkfkksssasdsds2:333s22.@2.O@ =88=88aa8aa8a8888888",
"fffllfkkflflfktkssssdsdds3333ss3OO..OO ==X=8a888888888aa8888",
"ffffflkflfkfkfkss4dd3sss23=22:==OOOOO= .8=8=a888a88a8a888888",
"tfffffkkffffff5t333a33a322:2222:OOOO ====8=888aaa88a88a88888",
"t:3ksssssssst3kks23s23s2=====:22OOOO @ @8=8=8888888a8a888888",
"t5s:ssssssssk3t3s32s2s3s@:@:@@@@OOOO@ @ =8=888a88a888a8a8888",
"3:2:3s3ts:tt3t3:233333s3:@=@=@=@@..@ @ @8=8=w8w8a8a888888888",
":t3s:tkk335ts:st232323==@=@=@=@:.@ .@ @ =8=88t8a88a8tw888888",
"222@33s33s223s23:=22=@:o=@=@=o:@....XXXX%6%68888888888888888",
":=2:332s2s3s32s323@::=@=@=@:o=@=....XXXX X X8888888888888888",
"2:23323s23s3ss222@2====@=@=o=@=o....XXXXX6= 8888888888888888",
"2=2@ss32s322233s:3:=:@@=o:@=o=@:....XXXX %=88888888888888888",
"23:=223s23sss33323=:=@:@=@:o=@=@....XXXXX X68888888888888888",
":@2=3s32s32322s32@22=:@=o=@=o:o=....XXXX6% %8888888888888888",
"2@==22a2222222223@@3=@=@=o=@=o:@..@ XXXX%6X6888888888888%866",
"2O=2222222222223=22:=:o=@:@:o=@=X.XXXXXX X %8888888888887766",
"=8:8rrrrtttttttt:@=o=o=ooooooooooXXX X6X6% X68=8666666666666",
"=%=trrrrtttttttto=@=@:o=oooooooo%XX6%6% X %6%88=666666666666",
"r%rrrrrrtttttttt=@=o=o:@oooooooo %6% X %6X6X=8=8666666666666",
"%r%rrrrrtttttttt@:o=@=@=ooooooooX6X %6X6% %  =8=666666666666",
"r%rrrrrrtttttttt=o:@=@=ooooooooo6% X6% X6X6XX888666666666666",
"%r%rrrrrtttttttt@=@=@:o=ooooooooX %6X %6% % X88=666666666666",
"r%rrrrrrtttttttt:@=@=o=@oooooooo6X6X6X6X X6%=8=8666666666666",
"%r%trrrrtttttttto=o=@:@:oooooooo% % % % %6XX==8=666666666666",
"%r%rrrrrtttttttt=o:@=o=ooooooooo6X6X6X6X X6% % X666666666666",
"r%rrrrrrtttttttto=@=@:@=oooooooo% % % % %6X X6%6666666666666",
"%rrrrrrrtttttttt=@=@=o=@oooooooo X6% X6% % %6X X666666666666",
"r%%rrrrrtttttttt@:o=@=o:oooooooo%6X %6X X6X6% %6666666666666",
"%r%trrrrtttttttt=o=@=@=@oooooooo % X6% %6X6X % X666666666666",
"r%%rrrrrtttttttt@=o:@:o=ooooooooX6%6X X6% % X6%6666666666666",
"r%rrrrrrtttttttt:@=@=o:@oooooooo6X X6%6X X6%6X X666666666666",
"%r%rrrrrtttttttto=@:o=o=ooooooo%% %6X % %6X % %6666666666666",
"trrrttttttttttttrrrrrrrr%r%r%r%r X6% % X=8=8=8=8    66666677",
"rrrrttttttttttttrrrrrrrrr%r%r%r%%6X X6%68=8=8=8=    66666677",
"rrrrttttttttttttrrrrrrrr%r%r%r%r % %6X X=8=8=8=8    66666677",
"rrrrttttttttttttrrrrrrrrr%r%r%r%X6X6% %68=8=8=8=    66666677",
"rrrrttttttttttttrrrrrrrr%r%r%r%r6X6X % X=8=8=8=8    66666667",
"rrrrttttttttttttrrrrrrrrr%r%r%r%% % X6%68=8=8=8=    666666w7",
"rrrrttttttttttttrrrrrrrr%r%r%r%r X6%6X X=8=8=8=8    666666w6",
"rrrrttttttttttttrrrrrrrrr%r%r%r%%6X % %68=8=8=88    666666ww",
"tttttttttttttttt%r%r%r%r%%%%%%%% % X6% % % X6% %    6666668w",
"ttttttttttttttttr%r%r%r%%%%%%%%%X6%6X X6X6%6X X6    666666ww",
"tttttttttttttttt%r%r%r%r%%%%%%%%6X X6%6X6X X6%6X    666666ww",
"ttttttttttttttttr%r%r%r%%%%%%%%%% %6X % % %6X %     666666ww"
};
