/* XPM */
static char *_d4865294b884b84fbf4c5827e7677615OAbTYMWU3sopVJJ[] = {
/* columns rows colors chars-per-pixel */
"60 60 204 2 ",
"   c #000000",
".  c #090604",
"X  c #070800",
"o  c #090906",
"O  c #050509",
"+  c #08070C",
"@  c #04090A",
"#  c #0B0B0B",
"$  c #0F0E13",
"%  c #0F1217",
"&  c #131314",
"*  c #161817",
"=  c #1A1B13",
"-  c #13151B",
";  c #1B1B1B",
":  c #1F201B",
">  c #20211C",
",  c #1E1E21",
"<  c #161922",
"1  c #201F24",
"2  c #232325",
"3  c #26262A",
"4  c #27282A",
"5  c #2B2B2D",
"6  c #2A2B26",
"7  c #2D2D32",
"8  c #282834",
"9  c #2F3032",
"0  c #2F313D",
"q  c #323235",
"w  c #363639",
"e  c #38373C",
"r  c #3B3B3E",
"t  c #3C3C42",
"y  c #45444B",
"u  c #48474F",
"i  c #4A494D",
"p  c #434247",
"a  c #4B4A51",
"s  c #474B55",
"d  c #504F55",
"f  c #525255",
"g  c #51535D",
"h  c #57585D",
"j  c #5D5B63",
"k  c #595C67",
"l  c #605F65",
"z  c #605E69",
"x  c #5F6269",
"c  c #636363",
"v  c #64636B",
"b  c #6C6C73",
"n  c #6D6E79",
"m  c #706F77",
"M  c #6F737F",
"N  c #747375",
"B  c #74747E",
"V  c #7C7C7D",
"C  c #777B7C",
"Z  c #7F817E",
"A  c #7B7D82",
"S  c #797986",
"D  c #7D8186",
"F  c #838382",
"G  c #87868B",
"H  c #86898E",
"J  c #8C8A8C",
"K  c #888689",
"L  c #908C8D",
"P  c #95938C",
"I  c #868A93",
"U  c #898C93",
"Y  c #8C8F9B",
"T  c #8E9297",
"R  c #8D919C",
"E  c #969595",
"W  c #959896",
"Q  c #9A9A94",
"!  c #92949E",
"~  c #969A9C",
"^  c #9B999A",
"/  c #98979C",
"(  c #A19E9D",
")  c #A19E95",
"_  c #A4A39C",
"`  c #959AA2",
"'  c #9A9BA3",
"]  c #9699AA",
"[  c #9C9DAB",
"{  c #9195A0",
"}  c #A09EAB",
"|  c #9FA1AD",
" . c #9FA7B2",
".. c #A3A3A3",
"X. c #AAA7A6",
"o. c #A5A8A7",
"O. c #ACABA3",
"+. c #A4A4AC",
"@. c #A9A6A9",
"#. c #A6A9AE",
"$. c #ACABAA",
"%. c #B2AFAA",
"&. c #B3B2AC",
"*. c #B9B6AF",
"=. c #A4A6B2",
"-. c #A5A9B5",
";. c #AAABB3",
":. c #ABADB9",
">. c #B0ADB4",
",. c #AFB2B5",
"<. c #ACB0BB",
"1. c #B5B4B3",
"2. c #B9B7B3",
"3. c #BBBBB3",
"4. c #B2B4BD",
"5. c #B5B9BD",
"6. c #BDBCBA",
"7. c #B8B6B9",
"8. c #C1BDB9",
"9. c #C1BEB5",
"0. c #C4C3BD",
"q. c #C8C5BD",
"w. c #C1C1B7",
"e. c #ACAFC0",
"r. c #AFB2C3",
"t. c #AFB4C8",
"y. c #B4B5C3",
"u. c #B4B9C4",
"i. c #BBBAC3",
"p. c #B6BDCD",
"a. c #BBBDCB",
"s. c #B8B6C1",
"d. c #BEC2C4",
"f. c #BDC1CD",
"g. c #BEC5D3",
"h. c #C5C4C2",
"j. c #CCCBC4",
"k. c #C3C3CC",
"l. c #C3C9CD",
"z. c #CDCDCC",
"x. c #C7C9C3",
"c. c #D1CFCB",
"v. c #D0CDC6",
"b. c #CCD1CD",
"n. c #D0D0C6",
"m. c #D3D2CC",
"M. c #DBDACF",
"N. c #DAD3C6",
"B. c #C2C5D3",
"V. c #C6C9D6",
"C. c #CCCCD2",
"Z. c #C3C7DA",
"A. c #C6CAD9",
"S. c #CBCCDA",
"D. c #D1CFDA",
"F. c #CDD2DC",
"G. c #D4D4D4",
"H. c #D8D7D2",
"J. c #D6DCD4",
"K. c #DBDBD4",
"L. c #D4D4DC",
"P. c #DDDCD9",
"I. c #D8D7DC",
"U. c #E2DCCA",
"Y. c #E2DEDA",
"T. c #E5DCD6",
"R. c #DFE2DD",
"E. c #DCE5D2",
"W. c #E7E3D7",
"Q. c #EBE3D5",
"!. c #E3E3DC",
"~. c #E5E8DF",
"^. c #E8EADF",
"/. c #CDD2E5",
"(. c #D2D4E3",
"). c #D5D9E4",
"_. c #DCDCE4",
"`. c #D7DEE8",
"'. c #DBDDE9",
"]. c #E0DFE7",
"[. c #E1DFEA",
"{. c #DEE2ED",
"}. c #DFE0E2",
"|. c #DFE5F1",
" X c #E3E3E3",
".X c #E8E7E3",
"XX c #E6E9E3",
"oX c #ECEBE5",
"OX c #E3E4EC",
"+X c #EDEDEB",
"@X c #E4E9EF",
"#X c #F0EFEA",
"$X c #F1F1ED",
"%X c #E3E6F3",
"&X c #E9E7F5",
"*X c #E6EAF3",
"=X c #EAEAF5",
"-X c #EEEBFC",
";X c #EFF0F5",
":X c #E9F0FA",
">X c #F4F4F5",
",X c #F3F4FB",
"<X c #FFFFFA",
"1X c #F8F7F2",
/* pixels */
"                                                      O                 O .                                             ",
"                                                                            O #                                         ",
"                                                  O .         O O # # O                                                 ",
"                                                                          O                                             ",
"                                                    .     .     .           O .                                         ",
"                                                #           O       O o       O                                         ",
"                                                      o * 2 4 2 #                                                       ",
"                                                  O ; r c V Z V F i *     #                                             ",
"                                  .   +   $       s R  .] ] | ` H ! ;.7   *   O   O         #                           ",
"                                . .     @     2 D | e.e.t.p.s.=.4.} Y d.y O + .   O   # .   O                           ",
"                                    O   $   , b  .t.g.g.Z.A.V.B.a.r.a.{ ;Xp   &         @     O                         ",
"                                        O - x ;.f.f.p.g./.(.S.k.Z.S.r.y.;.].7     .     O .                             ",
"                                  .       g =.f.g.F.L.f.' U #.V.F.V.a.f.=.C.z.    @ O     O                             ",
"                                      O - I Z.g./.4.! ^ 1.7.1.X.5.l.-.S.S.+.OXF     o O                                 ",
"                                      # k <.A.B.>.$.&.q.U.T.M.N.x.o.>.V.S.s.k.H.6     o       O                         ",
"                                X O   % ! g.A.F.} 8.M.Q.U.U.U.T.E.J.4.} D._.+.I.F &   #     .                           ",
"                                      g g.(.C.+.O.N.M.N.n.E.oX!.K.$Xj.( X.D.r.t.d.# X   O                               ",
"                                    @ M Z.).i.+.n.K.M.~.R.M.!.!.!.!.c.&.( C.'.y.I.c   .                                 ",
"                                  O <  .A.).$.$.3.3.w.M.!.H..XoXoX~.v.X.L } S.] c.%.  O     . O                         ",
"                                    0 p.(.C.$.2.n.M.M.m.Y.K.+X!.!.#X8._ $./ B.k.;.l.; O O                               ",
"                                O   g V.{.d.3.n.~.oXoXK. XH.+X!.XX~.2.%.2.H u.}.+.C.h   #                               ",
"                                + O B F.OXd.m.!.T.H.P.H.oXm.+X#X1Xh.O.8.O.Z | l.>.4.G O #     o                         ",
"                                .   H `.{.l.R.oX$X^.oXY.#XG..XI.oX3._ q.h._ o.F.s.} ' O O   . O                         ",
"                                    T OX{.z.XX+X~.oX#Xc.+XP.+X6..XH._ *.K.7.C l.S.[ =.$ +   #                           ",
"                                    o.OX}.C.$XXXoXoX!. X!.T.H.2.P.$Xq.3.w.1.E 7.'.R o.4   o   O                         ",
"                                @ @ ;.*X Xz.;X+X#X1Xm.#Xx.Y.h.&.!.!.0.m.n.&.J @.).! ` w O O                             ",
"                                  $ ;.;X{.G.$X$X#XoXH.P.K.P.K.3.x.R.m.q.w.0.^ J `.| T i o     O                         ",
"                                  @ #.,X}.G.+X$X+XP.H.m.oX!.+Xw.&.n.q.*.%.b.7.G ).<.H f       O                         ",
"                                  @ | >XOXP.+X>X!.!.j.!.Y.$XY.3.&.&.&.w.&.6.X.G f.r.U f     #                           ",
"                                @ @ ~ ,XOX X+XoXP.H.G.Y..X.X!.6.&.2.&.3.O.&.E N -.+.H f   . o                           ",
"                                @   U ;X X X~.K.m.c..Xm.+Xj.!.6.$.w.&.O.Q &.^ V ;.! D y   O                             ",
"                                @   D @X_.].K.z.z.Y.~.!.j.8.h.&.&.O.Q O.O.O.^ @.B.Y D r       O                         ",
"                                  o i _.OXP.x.M.oXK.!.K.w.%.O._ W 0._ P ) &.Q ~ [ R D 9   #   O                         ",
"                                X   3 ].&XG.x.^.W.!.!.K.3.O.O.&.b.R.j.w.&.P F o.f.=.H 4   o                             ",
"                                .     i._.k.3.c.^.oX!.M.q.&.O.2.J.J.m.n.j.^ ^ l.f.[ A %                                 ",
"                                X #   D _._.C.h.0.q.3.3.n.j.3.q.R.R.K.0.c.&.$.s.u.I v       #                           ",
"                                  &   t ].>XOXD.R.W.m.K.$XoXK.E.XXXX!.0.c.7.7.:.B.I k   O   #                           ",
"                                  #   & 7.OXOX[.K.E.R.W.E.m.n.m.J.E.K.j.j.1.4.B.Z.S t       @                           ",
"                                . o   $ b L.&X&Xm.c.K.!.!.!.oXoXXXR.m.j.>.$.>.B.-.x -       O .                         ",
"                                      . 1 k.&X'.~.m.M.!.T.~.oXK.XXXXn.q.$.i.a.S.Y s     o                               ",
"                                .     O + n &X[.-X'.c.H.oXoXT.Y.K.<X7.X.b.4.:.g.N ;   o .   O                           ",
"                                        O 7 } &X).-XOXh.h.Y.oX!.P.w.7.C.#.r.).Y i #   O     O                           ",
"                                    O     O s S.&X'._.@X].8.7.L.z.I.k.6.s.f.u.n *     O     .                           ",
"                                        O O $ B A.[.&XOX@X&X_.F.L.OXV.s.f.V.R 8 O     o                                 ",
"                                O   .         $ ` f.'.{.|.{.|.:X{.%XB.s.C.+.y O     O                                   ",
"                                          #     * G I.'.).%X|.).{.&X(.k.+.y   O                                         ",
"                                  .     O   o     * v i.'.S.A.%X`.<.s.` 9   .                 O                         ",
"                                  &     #     . X     8 S -.:.:.-.{ g @       .         .     O                         ",
"                                                O . + ; i v z y - #   O O                                               ",
"                                              O   q c b l j v m i 7 $ O   .                                             ",
"                                      .       # e u j v m B m z b f 7 & @ .                                             ",
"                                      O     # > p u a a g j z z j h i q &     O                                         ",
"                                O           & 6 7 t u u p y i f y a a r , #   .                                         ",
"                                .       O O * 6 7 7 8 q e r w 9 r r q 7 2 * #                                           ",
"                                        O # * , ; 1 2 2 * * > 6 5 3 1 ; 1 * #                                           ",
"                                        . # & & * & & = > ; = = % ; , * * & #                                           ",
"                                        O # # # # # # & & $ & & & $ # $ # & o o                                         ",
"                                          o # # # # # # # # # # $ # # o # # o O                                         ",
"                                          o . O   o . O # o o # # O . . o @ O                                           ",
"                                              O           O   o .   . O   . O                                           "
};
