/* XPM */
static char *a32895bf289f465fcb78e65a87d826fa4k97e9FIJXW1ZylO[] = {
/* columns rows colors chars-per-pixel */
"60 60 247 2 ",
"   c #010101",
".  c #0A0303",
"X  c #020803",
"o  c #090904",
"O  c #03020A",
"+  c #09040A",
"@  c #05090A",
"#  c #0D0A0B",
"$  c #120404",
"%  c #170601",
"&  c #181403",
"*  c #000413",
"=  c #1D1A16",
"-  c #100211",
";  c #2A0200",
":  c #280B01",
">  c #3C0301",
",  c #35060A",
"<  c #261B02",
"1  c #3A1509",
"2  c #38160A",
"3  c #281B14",
"4  c #3E0010",
"5  c #262101",
"6  c #36290A",
"7  c #3B3708",
"8  c #232212",
"9  c #3B2916",
"0  c #282A27",
"q  c #342925",
"w  c #38372A",
"e  c #430303",
"r  c #4B0303",
"t  c #45040A",
"y  c #4C040A",
"u  c #4B0802",
"i  c #540505",
"p  c #5C0505",
"a  c #53050A",
"s  c #5C0609",
"d  c #590A0A",
"f  c #45150A",
"g  c #4B1B0E",
"h  c #461507",
"j  c #531B0E",
"k  c #5C0811",
"l  c #481C14",
"z  c #501613",
"x  c #620907",
"c  c #64070A",
"v  c #640909",
"b  c #6B0A0B",
"n  c #69040A",
"m  c #73040C",
"M  c #730A0D",
"N  c #7B0B0E",
"B  c #770A05",
"V  c #64130E",
"C  c #78110B",
"Z  c #640915",
"A  c #7E0C11",
"S  c #790512",
"D  c #741A17",
"F  c #493609",
"G  c #553E09",
"H  c #592114",
"J  c #412C0F",
"K  c #68221A",
"L  c #752C11",
"P  c #681B24",
"I  c #422E25",
"U  c #423E32",
"Y  c #543A27",
"T  c #7B2121",
"R  c #5E480E",
"E  c #574519",
"W  c #544B0F",
"Q  c #664916",
"!  c #72531A",
"~  c #70431C",
"^  c #7D641E",
"/  c #5C4624",
"(  c #494437",
")  c #5C5535",
"_  c #64472C",
"`  c #664D39",
"'  c #675636",
"]  c #6D5B28",
"[  c #776726",
"{  c #6E6634",
"}  c #78633A",
"|  c #4E4B43",
" . c #585846",
".. c #514E47",
"X. c #664E42",
"o. c #655B4A",
"O. c #6F5B4E",
"+. c #5F6251",
"@. c #626252",
"#. c #7B7457",
"$. c #6D7253",
"%. c #787761",
"&. c #820B0E",
"*. c #8C0B0E",
"=. c #84050F",
"-. c #940C0D",
";. c #9C060C",
":. c #840D12",
">. c #8B0C13",
",. c #880412",
"<. c #940D13",
"1. c #9B0D14",
"2. c #960814",
"3. c #8C1213",
"4. c #851513",
"5. c #961114",
"6. c #9C1215",
"7. c #9C1219",
"8. c #94121A",
"9. c #88100F",
"0. c #A9050B",
"q. c #BA090A",
"w. c #B6090C",
"e. c #AD0C12",
"r. c #A40C18",
"t. c #BE0D12",
"y. c #B40D1A",
"u. c #BC0D1B",
"i. c #B00916",
"p. c #A41117",
"a. c #A31119",
"s. c #AC1119",
"d. c #AC1617",
"f. c #B4131A",
"g. c #BB151B",
"h. c #BA1716",
"j. c #832F19",
"k. c #B61A24",
"l. c #A91024",
"z. c #B8312A",
"x. c #C50C16",
"c. c #D90B1A",
"v. c #C41516",
"b. c #C3151A",
"n. c #C2191D",
"m. c #CB1619",
"M. c #D6161D",
"N. c #CC090D",
"B. c #E5071D",
"V. c #CC1A25",
"C. c #C81825",
"Z. c #D91624",
"A. c #E71B26",
"S. c #C8262C",
"D. c #DB272B",
"F. c #CA3031",
"G. c #E72A31",
"H. c #885C15",
"J. c #81631D",
"K. c #8A6718",
"L. c #987B17",
"P. c #A66E16",
"I. c #836D34",
"U. c #887136",
"Y. c #8A6A28",
"T. c #A86D2A",
"R. c #A97332",
"E. c #AA7A38",
"W. c #B77B39",
"Q. c #B07227",
"!. c #854A2A",
"~. c #DC493D",
"^. c #C34A39",
"/. c #817A5D",
"(. c #97784E",
"). c #B97C4C",
"_. c #B87944",
"`. c #AC7A45",
"'. c #A87A66",
"]. c #BF7C62",
"[. c #C84741",
"{. c #DA4744",
"}. c #DD5142",
"|. c #ED544C",
" X c #CB7351",
".X c #E47D6A",
"XX c #BE911E",
"oX c #AD8327",
"OX c #B2872C",
"+X c #AC8737",
"@X c #B68B37",
"#X c #B8923C",
"$X c #90845E",
"%X c #AD8A46",
"&X c #B68548",
"*X c #B79848",
"=X c #B78857",
"-X c #A89A5C",
";X c #B99B54",
":X c #AC9248",
">X c #B1A356",
",X c #ADA75D",
"<X c #9A987A",
"1X c #928B6C",
"2X c #B88F67",
"3X c #A89765",
"4X c #B59C68",
"5X c #B69E72",
"6X c #B7A869",
"7X c #A5A57B",
"8X c #B5A777",
"9X c #BBB276",
"0X c #A3A365",
"qX c #C19B5D",
"wX c #C3AD5A",
"eX c #E88E6E",
"rX c #C6B275",
"tX c #D6A278",
"yX c #F4CF75",
"uX c #D2C97A",
"iX c #9D9D83",
"pX c #A59F89",
"aX c #BEAC84",
"sX c #B8B187",
"dX c #AAAC89",
"fX c #C1B786",
"gX c #D4B590",
"hX c #F5B887",
"jX c #ECBE8E",
"kX c #CECA80",
"lX c #FAC39C",
"zX c #FBC599",
"xX c #FFDF81",
"cX c #E9E29A",
"vX c #FFCAA2",
"bX c #F3C9A3",
"nX c #FAD8AA",
"mX c #F2D2AB",
"MX c #FDECBD",
"NX c #F9E7BA",
"BX c #F4ECB6",
"VX c #D2CCAA",
"CX c #FEECC3",
"ZX c #F7EEC9",
"AX c #F9F7C9",
"SX c #FFFBD5",
"DX c #FFEED9",
/* pixels */
"                                                                                                                        ",
"                                                                                                                        ",
"                                                                                                                        ",
"                                                                                                                        ",
"                                                                                                                        ",
"                                                                                                                        ",
"                                                                                                                        ",
"                                                                                                                        ",
"                                      X   . .   O X   +     O X + O   O       . .   O X                                 ",
"                                        X           .   X       X X     o . X       +   O +   O                         ",
"                                o   .       O X X X   X O = pXpX+.q + O   .   + @ X . X   O   O                         ",
"                                  .     +         O O O   1XSXlXNXNXBXsX%.( =   O       . -                             ",
"                                O   o         3 0 q q I & <XlXN.D.{..XhXnXBXcXuX1X' w X . . O O                         ",
"                                        @    .DXAXAXAXZXAXAXmXM.v.x.w.t.v.z. XeXhXyXyXuX-X< X X                         ",
"                                      # O   pXnX~.|.}.~.}.~.].S.V.V.C.g.t.f.d.0.5.k.^. XyXwX. .                         ",
"                                    X O +   <XnXB.B.B.M.c.B.C k.v.v.g.v.v.f.d.d.7.i.e.,.L 3XO X                         ",
"                                        @   iXvXZ.A.P T D K K V.b.b.g.g.f.d.s.s.p.r.a.1.H U.X                           ",
"                                .       .   <XvXM.w.) dX<X7X'.b.g.h.g.f.f.d.s.r.7.p.a.1.H }   .                         ",
"                                . X     +   iXvXM.q.O.gXaXaX5Xm.g.g.g.f.s.s.a.p.7.p.1.2.H I.                            ",
"                                        @   <XvXM.t.X.sX8X7X2Xh.g.f.f.s.s.s.a.p.7.1.<.<.H I.                            ",
"                                    .   O   <XvXc.u.X.sX8X8X2Xv.f.f.s.s.p.p.7.7.5.-.<.<.H I.                            ",
"                                +           <XzXv.u.O.fX5X8X=Xf.f.s.s.p.p.7.1.5.5.-.>.>.H I.                            ",
"                                  O . X . X <XjXx.u.` 9X8X9X=Xy.s.s.a.a.p.5.5.<.<.-.4.*.j }                             ",
"                                  X = = .   <XlXv.i.X.rX3X8X=Xs.s.p.s.a.1.7.1.5.<.>.:.*.j Y.                            ",
"O     X   O     X . X X . X X $ O ( BXZX$.. 1XzXv.e.' 9X4X6X=Xr.8.a.a.7.1.7.3.>.>.:.:.:.j J.  .                         ",
"          .     + +   O .   O X O %.mXeXAXsXfXhXt.i.` 6X6X6X`.l.y.5.r.5.3.<.*.>.:.A :.=.g ^                             ",
"O       X +   . w @.@.o.@.+.o.o.) dXnXN.{.bXMXuXx.r.' 6X-X6X=X6.s.5.r.1.3.1.*.-.&.&.N =.l J.                            ",
"              0 SXCXMXMXCXCXNXCXNXNXbXV.x.w. XzXz.;._ 9X4XqX).;.3.1.5.>.*.4.C &.&.S C S g J.  O                         ",
"        +   X | MX{.G.G.D.D.D.D.D.S.V.m.h.h.e.S.].!.' 6X-X-X).a.a.2.8.<.8.>.A 4.N M M M g J.  .                         ",
"        O     ..SXD.M.M.c.M.m.m.v.v.c.n.C.h.h.f.g.[.(.;XqX;X(.8.:.V Z V b ,.S M N M b m f J.                            ",
"O   X     .   | MXG.A.A.A.D.Z.A.m.m.V.k.k.f.f.n.l.i _ ,X:X;X_.5.:.K D V M >.:.A S b b b f J.                            ",
"        .   . ..SXz.0.w.i.1.;.5.r.6.-.x.g.t.n.&.t h '.>X:X*XW.*.>.<.8.:.:.A M M M b c n f J.                            ",
"  +         + 8 ZXVX#.#././.#./.#.%.O.k.h.d.i J p.2._ ;X:X*XE.<.>.>.:.A N N M M b b c s g ! X                           ",
"        +     + 8 | ( U w U U U 9 $.rXt.m l O.qXp.*._ ;X:X#XE.>.:.:.:.N N M M M v c c p h !                             ",
"                  +   O O       X Y gXT E $.$X&X1.,._ *X:X:XR.:.:.&.N N M M b b c v c i h !                             ",
"            X + X   X   X     @ * 8 -X3X .X ' &X1.=.Q qX:X#XR.&.A A M M M b n v c c s i 1 Q                             ",
"      .         X               X   & = X X {  X1.&.Y #X#X#XR.N A N M M b b v x s s s y 1 R                             ",
"      X             . @ .       . O O   . X ] =X2.N Q qX+X@XR.B M M M b b v x s a s a y 1 R .                           ",
"+               . O         O   . O   X . . { `.2.m E #X+X+XT.M M M b n c s s p a a a t 1 G O                           ",
"                  X           X   X O .   O { W.2.B / #XoX+XT.M b b b v v p p p a a y e 1 G                             ",
"                                        . . { _.,.m Q @XoXOXT.b b b V v s p a a r a t t , F X X                         ",
"                                +     .   O ] W.3.m G &XoXoXP.x n c x s p p i a r r e > , F O                           ",
"                                X   O O   + { T.=.S Q #XOXOXP.M b v s p s a a t y y e > : F O O                         ",
"                                    O   X   ] ).B S D j.L j.~ Z s d i a i y y r t e > > : F O                           ",
"                                    O O . X ] Q.m B :.B m c e x Z s k a i r r e e e , , : 2   X                         ",
"                                O   X   . . ^ XXP f a 1 l z 2 d p p i i y t t t , ; % ; < 6 .                           ",
"                                O       + O 7 %XU.^ K.K.^ K.H.d p i r e > > ; : 3 2 9 9 < &   O                         ",
"                                . O X     *   % . # $ + X R P.e 4 , , 1 9 J F F 6 < & . X     .                         ",
"                                                    X   + G L.L F F W W 6 & & .                                         ",
"                                                  O   X + & R Y 6 3 % . . .                                             ",
"                                                  O O X O   X . X         X O                                           ",
"                                                  O O     O O X   X         X +                                         ",
"                                                O     .         X     O O O                                             ",
"                                                @         o   O       O O + O                                           ",
"                                                    o                                                                   ",
"                                                  O     O O   O O         X                                             ",
"                                                                                                                        ",
"                                                                                                                        ",
"                                                                                                                        ",
"                                                                                                                        "
};
