/* XPM */
static char *_44494da5b064a30c016808d82be711cBY2i8eWWgo8GzW8M[] = {
/* columns rows colors chars-per-pixel */
"60 60 211 2 ",
"   c #010101",
".  c #0B0201",
"X  c #020901",
"o  c #0C0A02",
"O  c #01010B",
"+  c #0B020B",
"@  c #020908",
"#  c #0A080A",
"$  c #130200",
"%  c #190400",
"&  c #140A00",
"*  c #1B0A01",
"=  c #10000A",
"-  c #180E0C",
";  c #120E0B",
":  c #0D1000",
">  c #0C1208",
",  c #141202",
"<  c #1B1202",
"1  c #13110B",
"2  c #020112",
"3  c #0B0313",
"4  c #0B0913",
"5  c #0F051D",
"6  c #100B17",
"7  c #120B1D",
"8  c #07101F",
"9  c #091119",
"0  c #250800",
"q  c #280800",
"w  c #241300",
"e  c #2E1700",
"r  c #2D1D00",
"t  c #311600",
"y  c #341B00",
"u  c #2B2200",
"i  c #232300",
"p  c #322100",
"a  c #3A2600",
"s  c #342F00",
"d  c #3B2E00",
"f  c #3C3100",
"g  c #452C00",
"h  c #443100",
"j  c #493400",
"k  c #453A00",
"l  c #4B3C00",
"z  c #523700",
"x  c #543E00",
"c  c #534500",
"v  c #594300",
"b  c #564C00",
"n  c #5F4E00",
"m  c #604600",
"M  c #624900",
"N  c #665100",
"B  c #685500",
"V  c #69530B",
"C  c #645B00",
"Z  c #765601",
"A  c #735A00",
"S  c #7A6600",
"D  c #7B6009",
"F  c #7F6A0F",
"G  c #7A6802",
"H  c #816501",
"J  c #8A6200",
"K  c #846B00",
"L  c #88690E",
"P  c #836C0E",
"I  c #877300",
"U  c #8F7A06",
"Y  c #907907",
"T  c #9A7E00",
"R  c #967C0E",
"E  c #897317",
"W  c #8F7E16",
"Q  c #85761B",
"!  c #9A7E1D",
"~  c #9B7B26",
"^  c #878305",
"/  c #9B810B",
"(  c #9F8517",
")  c #9D881D",
"_  c #A1890F",
"`  c #AA8D15",
"'  c #B09D1C",
"]  c #AA9518",
"[  c #A08923",
"{  c #A99127",
"}  c #AC9C23",
"|  c #B09A2B",
" . c #AD9E39",
".. c #B39B33",
"X. c #BEA427",
"o. c #B7A43D",
"O. c #E3BE04",
"+. c #EFBE00",
"@. c #E6BF0A",
"#. c #FBBF05",
"$. c #F2BA00",
"%. c #E8BE14",
"&. c #D4B620",
"*. c #C7AC37",
"=. c #C6A03D",
"-. c #C4A839",
";. c #C6B03C",
":. c #C4B93B",
">. c #DFBD37",
",. c #D6B939",
"<. c #E6C202",
"1. c #ECC501",
"2. c #E5CB03",
"3. c #EDCA01",
"4. c #E7C80C",
"5. c #F3C400",
"6. c #FDC502",
"7. c #F4CB02",
"8. c #FECC01",
"9. c #FEC50A",
"0. c #F4CC0B",
"q. c #FECB0A",
"w. c #F7C30D",
"e. c #ECD20A",
"r. c #F4D201",
"t. c #FDD201",
"y. c #FEDA01",
"u. c #F5D30D",
"i. c #FED30B",
"p. c #FFDA0B",
"a. c #EAC617",
"s. c #FEC513",
"d. c #F3CC15",
"f. c #FECB12",
"g. c #FFC51C",
"h. c #F2CD1B",
"j. c #FCCC1B",
"k. c #EDD317",
"l. c #ECD21D",
"z. c #F0D114",
"x. c #FED412",
"c. c #F7DA12",
"v. c #FFDC12",
"b. c #F3D31C",
"n. c #FCD41B",
"m. c #FFDB1E",
"M. c #DBC524",
"N. c #DFD42D",
"B. c #DDC435",
"V. c #DFC33C",
"C. c #E8C722",
"Z. c #E9CC23",
"A. c #EFC928",
"S. c #F4CD22",
"D. c #F3CB29",
"F. c #F8CA2C",
"G. c #E6D02D",
"H. c #FDD421",
"J. c #FCDC25",
"K. c #F5D42B",
"L. c #F5D82A",
"P. c #FED42A",
"I. c #EBCD31",
"U. c #E9C638",
"Y. c #ECCE3D",
"T. c #E7C937",
"R. c #F3CF39",
"E. c #FECF39",
"W. c #F4CA36",
"Q. c #E7D335",
"!. c #EBD63D",
"~. c #EFDA33",
"^. c #F4D433",
"/. c #FCD531",
"(. c #F6DF31",
"). c #FBDC35",
"_. c #F2D33B",
"`. c #F5DF3E",
"'. c #FEDD3B",
"]. c #FAD33A",
"[. c #FFE321",
"{. c #FEE33B",
"}. c #F7E334",
"|. c #A99C4D",
" X c #CBAB46",
".X c #CFB143",
"XX c #C8B74B",
"oX c #C7BD4A",
"OX c #D5B840",
"+X c #DCBD4C",
"@X c #DEC243",
"#X c #DDC44B",
"$X c #DDCC4F",
"%X c #DCC843",
"&X c #D6C655",
"*X c #D9C650",
"=X c #E4C747",
"-X c #EACE44",
";X c #ECC94B",
":X c #ECD542",
">X c #E9D34B",
",X c #F2D241",
"<X c #FAD642",
"1X c #F1D74E",
"2X c #FEDC4A",
"3X c #F9DC47",
"4X c #E9CB53",
"5X c #FADA5A",
"6X c #FFE24A",
"7X c #FAE045",
"8X c #F7E55B",
/* pixels */
"                                2 2 O             X O O O O     O O     .   O . O         X O 2                         ",
"                                2 O O                 O             .     . O O             O O                         ",
"                                                O             X                           O 2 2 O                       ",
"                                                          X       X O O O O X         X O O O                           ",
"                                . .   .     X     X     X   O O   O O 2 O   X       2 2 2 O   .                         ",
"                                  . .           X X     X O O O O   O O X   X     O 2 2 O . . .                         ",
"                                . .                   O . . . . .   .     X   X   O O O O   . .                         ",
"                                  O               . . . . $ $ $ $ $ . . O       O X O                                   ",
"                                    @   4 O O   . . & e x D L H A x 0 % . $ . O O X   X X   #                           ",
"                                X X   O O 6 . . % c [ ,.-X,X<X<XY.-X@X( h % . . +       X   O @                         ",
"                                  X o   4 . $ j o.T.(.[.c.3.0.0.H.a.a.).:XU y * . . +     8 2 2                         ",
"                                X X     . w V +XI.z.7.3.7.8.8.8.1.i.v.3.2.'.X.g $ * O 3 2 O 8 O                         ",
"                                      . . E V.7Xr.t.y.t.t.t.8.8.q.i.5.1.y.r.Z.5XM % $ + 7 O @                           ",
"                              O O + . & W B.[.<.t.t.8.8.8.8.8.i.x.5.8.y.t.7.u.C.+Xz % . . 6   O                         ",
"                                O . . l 7Xk.y.t.t.8.6.9.f.f.q.6.+.i.u.8.t.t.7.0.).>.t w .   4                           ",
"                                . . p %Xl.r.8.6.8.6.q.f.f.s.q.i.i.8.q.x.q.t.8.r.3.K.X.% . % O 2 O                       ",
"    .   .         @     . O +   $ $ ' L.3.i.f.#.9.6.8.8.t.8.6.q.8.8.q.q.q.t.t.t.y.1.).K $ $ + 2                         ",
"            .     O X       O . . c M.c.5.8.s.S.s.6.t.t.t.8.q.q.8.8.q.8.7.8.8.t.7.y.h.V.e * . 5 O                       ",
"    .   .       O           O $ % | (.r.8.8.#.s.q.8.8.t.t.8.q.6.8.8.q.6.q.8.8.8.6.v.a.Y.G o .                           ",
"        .       X   X X       . j >Xb.3.t.t.q.9.q.8.t.8.8.8.8.q.8.8.8.8.6.q.6.6.q.0.d.3X&X, :                           ",
"      O   .         @     .   $ R '.<.7.t.t.i.6.8.8.8.t.8.8.8.8.8.8.8.8.q.9.9.6.8.8.O.`.oXs   O                         ",
"          .       X @     . . w ,.H.3.t.t.8.t.8.8.8.t.8.8.8.8.8.8.8.8.8.9.q.q.q.f.d.^.] <   > X                         ",
"    .               X O .     x I.0.8.t.t.8.8.t.8.8.t.8.8.8.6.8.8.8.8.q.8.8.r.r.S.>.Z $ * ,                             ",
"                X       #   & F /.5.t.6.t.t.7.8.8.t.q.6.6.8.8.8.8.8.8.t.r.e.k.G._ e $ % .   o                           ",
"          O     X     O   $ $ o.S.8.q.q.8.8.8.8.8.i.6.5.i.8.8.8.q.8.t.r.2.}.:.c . . . .   .                             ",
"        O           X O O $ & ;.j.8.6.q.q.t.7.8.8.q.6.q.8.5.8.p.6.q.7.k.N.^ i X   O           .                         ",
"          O       X + O . $ r #Xj.6.f.f.q.7.t.8.6.q.q.8.8.7.t.5.n.%.2X#Xb X X             . O                           ",
"          O O   X   + O . $ f >Xj.q.q.q.q.q.8.8.q.q.6.8.8.8.p.d.A.5X! * . : X X X X       O . O                         ",
"        O O O     X   O . $ k :X0.8.q.q.7.t.8.8.q.9.6.i.t.7.x.K..Xn $ . o X             O   O                           ",
"        O O O   X X   O + . c Q.u.8.q.7.8.t.t.8.9.f.6.8.8.y.<.T 0 . $ . .   X       .                                   ",
"        O O O   X     O = $ c Q.0.t.t.t.r.t.8.8.6.f.6.6.7.p.@.G &             +   . .       O                           ",
"          O O       O + . . c !.0.8.8.r.t.t.t.8.q.#.6.p.8.7.m._.o.k o o .   + . . . .                                   ",
"        X     O   O   . & $ d $Xh.7.8.8.t.t.t.8.8.q.q.q.8.8.8.q.P.U.G % . .         . o     O O                         ",
"            O O 2 O   . o . u &XS.8.8.8.6.8.t.8.8.q.q.q.6.8.8.8.6.q.<X-.g . o . . X                                     ",
".             O O 2   . . . < XXb.8.q.6.5.8.t.8.8.8.u.q.8.8.6.8.t.7.O./.1XG $ $ 1   o o   # +                           ",
"X             X O O O     & .  .b.7.q.f.9.8.t.6.8.i.q.7.8.q.6.8.8.7.p.7.@.2X Xy $ <     O   X                           ",
"    .           O O   . . &   Q J.7.5.j.f.9.8.8.8.8.7.t.q.q.q.q.7.t.t.t.8.f.F.;XQ & .     o   O                         ",
"O O               O O O   . . c L.t.0.f.f.6.6.8.8.8.8.8.8.8.q.q.i.7.6.8.6.6.8.H.:X| s . o   O                           ",
". .               O O       . w &.x.i.8.q.6.6.q.8.t.8.t.8.q.q.q.t.t.x.f.8.8.8.$.0./.>XC . . ;                           ",
"O     .               O     o . ` a.i.5.t.i.6.9.8.8.t.8.r.7.t.8.r.p.q.#.6.6.6.t.t.<.l.8X|.u   +                         ",
".   .                 O     O . z ,Xz.r.y.8.9.f.8.8.8.t.8.8.t.8.8.r.8.q.s.s.9.8.8.t.5.Z.*Xu   4                         ",
"O O                 O     O     $ *.l.r.t.5.x.q.8.8.t.8.8.t.7.t.t.t.t.t.f.f.9.6.6.6.i.K.I $ , O                         ",
"  O                         O   $ c !.e.r.7.v.9.8.8.t.t.8.r.t.t.t.8.t.7.7.q.6.8.i.6.w.W.t &   O                         ",
"                          O O   * . } ~.e.i.q.q.8.8.8.8.8.8.t.t.t.8.q.7.t.t.8.8.q.s.E.J 0 $   O                         ",
"        O                       . o d *XI.j.5.y.8.8.8.8.8.8.t.8.8.6.8.8.t.t.t.r.0.].=.q $ $   2                         ",
"                                  o . V 4X'.1.t.8.8.q.6.8.8.8.8.q.q.8.8.8.t.t.r.{.OXg & . O O O                         ",
"      O O O O                   X X $ $ ~ U.7.t.8.8.9.q.q.8.8.q.q.9.8.8.8.8.0.D.#Xn . . 1   @                           ",
"          O                         O $ % R L.r.7.q.q.q.8.8.6.q.q.6.8.8.8.6.F.;XN . X     @   X                         ",
"                                O X O . . * G :XZ.z.0.7.8.8.q.6.6.t.t.5.b.2X;.n . .                                     ",
"                                O   X X     & l ;.T.{.J.d.7.0.7.7.p.z.K.>X` a . . .         X                           ",
"                                X X     + + . $ % M ..=X_.^.K./.].-X#X{ x % . & O         X                             ",
"                                  X     2 3 3 = $ $ * a B Y / U P v p $ . $ &       O O                                 ",
"                                  .   O 2 2 +   .   & . . . . & . $ . O 1 4 O 4 O O O                                   ",
"                                    O . 6 + . . o     . . o +         @ O O 2 2 2 2 O O   . . .                         ",
"                                .               X     X X O 2 2     X @   X 9 O O O O     . .                           ",
"                                  o o                     O 2 2   X     @                 .   .                         ",
"                                    .                               X         X           O O O                         ",
"                                              O                                           O .                           ",
"                                      X O   O   O         .     .     . .                                               ",
"                                O O O O   O         .     . . . . . O                                                   "
};
